<svg xmlns="http://www.w3.org/2000/svg" xmlns:xlink="http://www.w3.org/1999/xlink" width="200" zoomAndPan="magnify" viewBox="0 0 150 74.999997" height="100" preserveAspectRatio="xMidYMid meet" version="1.0"><defs><g/><clipPath id="0edad16d56"><path d="M 12 20.699219 L 17 20.699219 L 17 49.949219 L 12 49.949219 Z M 12 20.699219 " clip-rule="nonzero"/></clipPath><clipPath id="f904484af9"><path d="M 60 20.699219 L 64 20.699219 L 64 49.949219 L 60 49.949219 Z M 60 20.699219 " clip-rule="nonzero"/></clipPath><clipPath id="b4636d216f"><path d="M 74 33 L 76.5 33 L 76.5 37 L 74 37 Z M 74 33 " clip-rule="nonzero"/></clipPath></defs><g clip-path="url(#0edad16d56)"><path fill="#89ff04" d="M 12.761719 20.699219 L 16.414062 20.699219 L 16.414062 49.960938 L 12.761719 49.960938 Z M 12.761719 20.699219 " fill-opacity="1" fill-rule="nonzero"/></g><path fill="#89ff04" d="M 8.070312 23.726562 L 11.71875 23.726562 L 11.71875 46.929688 L 8.070312 46.929688 Z M 8.070312 23.726562 " fill-opacity="1" fill-rule="nonzero"/><path fill="#89ff04" d="M 3.355469 26.71875 L 7.003906 26.71875 L 7.003906 43.9375 L 3.355469 43.9375 Z M 3.355469 26.71875 " fill-opacity="1" fill-rule="nonzero"/><path fill="#89ff04" d="M 0.0195312 33.738281 L 2.402344 33.738281 L 2.402344 36.917969 L 0.0195312 36.917969 Z M 0.0195312 33.738281 " fill-opacity="1" fill-rule="nonzero"/><path fill="#89ff04" d="M 17.457031 33.738281 L 59.027344 33.738281 L 59.027344 36.917969 L 17.457031 36.917969 Z M 17.457031 33.738281 " fill-opacity="1" fill-rule="nonzero"/><g clip-path="url(#f904484af9)"><path fill="#89ff04" d="M 63.742188 20.699219 L 60.09375 20.699219 L 60.09375 49.960938 L 63.742188 49.960938 Z M 63.742188 20.699219 " fill-opacity="1" fill-rule="nonzero"/></g><path fill="#89ff04" d="M 68.4375 23.726562 L 64.785156 23.726562 L 64.785156 46.929688 L 68.4375 46.929688 Z M 68.4375 23.726562 " fill-opacity="1" fill-rule="nonzero"/><path fill="#89ff04" d="M 73.128906 26.71875 L 69.480469 26.71875 L 69.480469 43.9375 L 73.128906 43.9375 Z M 73.128906 26.71875 " fill-opacity="1" fill-rule="nonzero"/><g clip-path="url(#b4636d216f)"><path fill="#89ff04" d="M 76.488281 33.738281 L 74.105469 33.738281 L 74.105469 36.917969 L 76.488281 36.917969 Z M 76.488281 33.738281 " fill-opacity="1" fill-rule="nonzero"/></g><g fill="#89ff04" fill-opacity="1"><g transform="translate(80.074216, 30.424443)"><g><path d="M 5.890625 -4.191406 L 5.890625 -5.484375 L 0.410156 -5.484375 L 0.410156 0 L 5.890625 0 L 5.890625 -1.292969 L 1.703125 -1.292969 L 1.703125 -2.09375 L 5.890625 -2.09375 L 5.890625 -3.386719 L 1.703125 -3.386719 L 1.703125 -4.191406 Z M 5.890625 -4.191406 "/></g></g></g><g fill="#89ff04" fill-opacity="1"><g transform="translate(86.375321, 30.424443)"><g><path d="M 4.597656 -5.484375 L 4.597656 -2.527344 L 1.703125 -4.582031 L 1.703125 -5.484375 L 0.410156 -5.484375 L 0.410156 0 L 1.703125 0 L 1.703125 -2.945312 L 4.597656 -0.890625 L 4.597656 0 L 5.835938 0 L 5.890625 0.0390625 L 5.890625 -5.484375 Z M 4.597656 -5.484375 "/></g></g></g><g fill="#89ff04" fill-opacity="1"><g transform="translate(92.676426, 30.424443)"><g><path d="M 5.890625 -4.191406 L 5.890625 -5.484375 L 0.410156 -5.484375 L 0.410156 0 L 5.890625 0 L 5.890625 -1.292969 L 1.703125 -1.292969 L 1.703125 -2.09375 L 5.890625 -2.09375 L 5.890625 -3.386719 L 1.703125 -3.386719 L 1.703125 -4.191406 Z M 5.890625 -4.191406 "/></g></g></g><g fill="#89ff04" fill-opacity="1"><g transform="translate(98.977531, 30.424443)"><g><path d="M 0.410156 -5.484375 L 0.410156 0 L 1.703125 0 L 1.703125 -1.046875 L 3.28125 -1.046875 L 4.304688 0 L 5.875 0 L 4.835938 -1.046875 L 5.890625 -1.046875 L 5.890625 -5.484375 Z M 1.703125 -2.339844 L 1.703125 -4.191406 L 4.597656 -4.191406 L 4.597656 -2.339844 Z M 1.703125 -2.339844 "/></g></g></g><g fill="#89ff04" fill-opacity="1"><g transform="translate(105.278637, 30.424443)"><g><path d="M 5.890625 0 L 5.890625 -3.386719 L 3.550781 -3.386719 L 3.550781 -2.09375 L 4.597656 -2.09375 L 4.597656 -1.292969 L 1.703125 -1.292969 L 1.703125 -4.191406 L 5.890625 -4.191406 L 5.890625 -5.484375 L 0.410156 -5.484375 L 0.410156 0 Z M 5.890625 0 "/></g></g></g><g fill="#89ff04" fill-opacity="1"><g transform="translate(111.579742, 30.424443)"><g><path d="M 4.597656 -1.292969 L 0.410156 -1.292969 L 0.410156 0 L 5.890625 0 L 5.890625 -5.484375 L 4.597656 -5.484375 L 4.597656 -3.386719 L 1.703125 -3.386719 L 1.703125 -5.484375 L 0.410156 -5.484375 L 0.410156 -2.09375 L 4.597656 -2.09375 Z M 4.597656 -1.292969 "/></g></g></g><g fill="#ffcc00" fill-opacity="1"><g transform="translate(80.074216, 39.337977)"><g><path d="M 2.167969 -4.347656 L 0.0625 0 L 1.050781 0 L 1.496094 -0.96875 L 2.699219 -0.96875 L 2.738281 0 L 3.730469 0 L 3.476562 -4.347656 Z M 2.671875 -1.777344 L 1.875 -1.777344 L 2.609375 -3.351562 Z M 2.671875 -1.777344 "/></g></g></g><g fill="#ffcc00" fill-opacity="1"><g transform="translate(88.829248, 39.337977)"><g><path d="M 3.003906 -4.445312 C 1.730469 -4.445312 0.960938 -3.582031 0.65625 -2.171875 C 0.597656 -1.882812 0.566406 -1.613281 0.566406 -1.371094 C 0.566406 -0.441406 1.03125 0.0976562 2.042969 0.0976562 C 3.105469 0.0976562 3.8125 -0.503906 4.191406 -1.507812 L 3.230469 -1.507812 C 3.003906 -0.992188 2.6875 -0.6875 2.222656 -0.6875 C 1.746094 -0.6875 1.546875 -0.980469 1.546875 -1.488281 C 1.546875 -1.6875 1.578125 -1.917969 1.625 -2.171875 C 1.824219 -3.097656 2.191406 -3.65625 2.851562 -3.65625 C 3.316406 -3.65625 3.507812 -3.351562 3.507812 -2.835938 L 4.46875 -2.835938 C 4.476562 -2.886719 4.476562 -2.9375 4.476562 -2.988281 C 4.476562 -3.90625 4.011719 -4.445312 3.003906 -4.445312 Z M 3.003906 -4.445312 "/></g></g></g><g fill="#ffcc00" fill-opacity="1"><g transform="translate(97.832645, 39.337977)"><g><path d="M 2.167969 -4.347656 L 0.0625 0 L 1.050781 0 L 1.496094 -0.96875 L 2.699219 -0.96875 L 2.738281 0 L 3.730469 0 L 3.476562 -4.347656 Z M 2.671875 -1.777344 L 1.875 -1.777344 L 2.609375 -3.351562 Z M 2.671875 -1.777344 "/></g></g></g><g fill="#ffcc00" fill-opacity="1"><g transform="translate(106.587677, 39.337977)"><g><path d="M 1.1875 -4.347656 L 0.261719 0 L 2.160156 0 C 3.140625 0 3.917969 -0.78125 4.210938 -2.171875 C 4.277344 -2.476562 4.308594 -2.75 4.308594 -3 C 4.308594 -3.867188 3.898438 -4.347656 3.085938 -4.347656 Z M 1.988281 -3.5625 L 2.652344 -3.5625 C 3.097656 -3.5625 3.320312 -3.316406 3.320312 -2.789062 C 3.320312 -2.613281 3.296875 -2.410156 3.246094 -2.171875 C 3.046875 -1.222656 2.644531 -0.78125 2.0625 -0.78125 L 1.398438 -0.78125 Z M 1.988281 -3.5625 "/></g></g></g><g fill="#ffcc00" fill-opacity="1"><g transform="translate(115.491728, 39.337977)"><g><path d="M 1.191406 -4.347656 L 0.265625 0 L 3.179688 0 L 3.351562 -0.808594 L 1.402344 -0.808594 L 1.609375 -1.789062 L 3.171875 -1.789062 L 3.339844 -2.558594 L 1.777344 -2.558594 L 1.980469 -3.539062 L 3.929688 -3.539062 L 4.105469 -4.347656 Z M 1.191406 -4.347656 "/></g></g></g><g fill="#ffcc00" fill-opacity="1"><g transform="translate(123.750031, 39.337977)"><g><path d="M 1.1875 -4.347656 L 0.261719 0 L 1.230469 0 L 1.832031 -2.832031 L 2.066406 0 L 2.558594 0 L 4.003906 -2.835938 L 3.402344 0 L 4.363281 0 L 5.289062 -4.347656 L 3.960938 -4.347656 L 2.6875 -1.71875 L 2.515625 -4.347656 Z M 1.1875 -4.347656 "/></g></g></g><g fill="#ffcc00" fill-opacity="1"><g transform="translate(133.337086, 39.337977)"><g><path d="M 0.988281 -4.347656 L 1.644531 -1.242188 L 1.378906 0 L 2.335938 0 L 2.601562 -1.242188 L 4.578125 -4.347656 L 3.484375 -4.347656 L 2.347656 -2.296875 L 2.082031 -4.347656 Z M 0.988281 -4.347656 "/></g></g></g></svg>