<svg xmlns="http://www.w3.org/2000/svg" xmlns:xlink="http://www.w3.org/1999/xlink" width="180" zoomAndPan="magnify" viewBox="0 0 135 37.5" height="50" preserveAspectRatio="xMidYMid meet" version="1.0"><defs><g/></defs><g fill="#89ff04" fill-opacity="1"><g transform="translate(8.966104, 17.78083)"><g><path d="M 17.398438 -12.371094 L 17.398438 -16.191406 L 1.207031 -16.191406 L 1.207031 0 L 17.398438 0 L 17.398438 -3.816406 L 5.027344 -3.816406 L 5.027344 -6.1875 L 17.398438 -6.1875 L 17.398438 -10.003906 L 5.027344 -10.003906 L 5.027344 -12.371094 Z M 17.398438 -12.371094 "/></g></g></g><g fill="#89ff04" fill-opacity="1"><g transform="translate(27.573074, 17.78083)"><g><path d="M 13.582031 -16.191406 L 13.582031 -7.46875 L 5.027344 -13.53125 L 5.027344 -16.191406 L 1.207031 -16.191406 L 1.207031 0 L 5.027344 0 L 5.027344 -8.699219 L 13.582031 -2.632812 L 13.582031 0 L 17.230469 0 L 17.398438 0.121094 L 17.398438 -16.191406 Z M 13.582031 -16.191406 "/></g></g></g><g fill="#89ff04" fill-opacity="1"><g transform="translate(46.180043, 17.78083)"><g><path d="M 17.398438 -12.371094 L 17.398438 -16.191406 L 1.207031 -16.191406 L 1.207031 0 L 17.398438 0 L 17.398438 -3.816406 L 5.027344 -3.816406 L 5.027344 -6.1875 L 17.398438 -6.1875 L 17.398438 -10.003906 L 5.027344 -10.003906 L 5.027344 -12.371094 Z M 17.398438 -12.371094 "/></g></g></g><g fill="#89ff04" fill-opacity="1"><g transform="translate(64.787013, 17.78083)"><g><path d="M 1.207031 -16.191406 L 1.207031 0 L 5.027344 0 L 5.027344 -3.09375 L 9.691406 -3.09375 L 12.710938 0 L 17.351562 0 L 14.28125 -3.09375 L 17.398438 -3.09375 L 17.398438 -16.191406 Z M 5.027344 -6.910156 L 5.027344 -12.371094 L 13.582031 -12.371094 L 13.582031 -6.910156 Z M 5.027344 -6.910156 "/></g></g></g><g fill="#89ff04" fill-opacity="1"><g transform="translate(83.393983, 17.78083)"><g><path d="M 17.398438 0 L 17.398438 -10.003906 L 10.488281 -10.003906 L 10.488281 -6.1875 L 13.582031 -6.1875 L 13.582031 -3.816406 L 5.027344 -3.816406 L 5.027344 -12.371094 L 17.398438 -12.371094 L 17.398438 -16.191406 L 1.207031 -16.191406 L 1.207031 0 Z M 17.398438 0 "/></g></g></g><g fill="#89ff04" fill-opacity="1"><g transform="translate(102.000953, 17.78083)"><g><path d="M 13.582031 -3.816406 L 1.207031 -3.816406 L 1.207031 0 L 17.398438 0 L 17.398438 -16.191406 L 13.582031 -16.191406 L 13.582031 -10.003906 L 5.027344 -10.003906 L 5.027344 -16.191406 L 1.207031 -16.191406 L 1.207031 -6.1875 L 13.582031 -6.1875 Z M 13.582031 -3.816406 "/></g></g></g><g fill="#ffcc00" fill-opacity="1"><g transform="translate(12.981673, 28.18937)"><g><path d="M 3.777344 -7.574219 L 0.109375 0 L 1.828125 0 L 2.609375 -1.6875 L 4.707031 -1.6875 L 4.773438 0 L 6.503906 0 L 6.058594 -7.574219 Z M 4.652344 -3.09375 L 3.269531 -3.09375 L 4.542969 -5.84375 Z M 4.652344 -3.09375 "/></g></g></g><g fill="#ffcc00" fill-opacity="1"><g transform="translate(28.237978, 28.18937)"><g><path d="M 5.238281 -7.746094 C 3.019531 -7.746094 1.675781 -6.242188 1.148438 -3.785156 C 1.039062 -3.277344 0.984375 -2.8125 0.984375 -2.390625 C 0.984375 -0.769531 1.796875 0.171875 3.558594 0.171875 C 5.410156 0.171875 6.644531 -0.875 7.304688 -2.628906 L 5.625 -2.628906 C 5.238281 -1.730469 4.683594 -1.199219 3.875 -1.199219 C 3.039062 -1.199219 2.695312 -1.710938 2.695312 -2.597656 C 2.695312 -2.941406 2.75 -3.34375 2.835938 -3.785156 C 3.179688 -5.398438 3.820312 -6.371094 4.964844 -6.371094 C 5.777344 -6.371094 6.113281 -5.84375 6.113281 -4.945312 L 7.789062 -4.945312 C 7.800781 -5.03125 7.800781 -5.117188 7.800781 -5.203125 C 7.800781 -6.804688 6.988281 -7.746094 5.238281 -7.746094 Z M 5.238281 -7.746094 "/></g></g></g><g fill="#ffcc00" fill-opacity="1"><g transform="translate(43.927076, 28.18937)"><g><path d="M 3.777344 -7.574219 L 0.109375 0 L 1.828125 0 L 2.609375 -1.6875 L 4.707031 -1.6875 L 4.773438 0 L 6.503906 0 L 6.058594 -7.574219 Z M 4.652344 -3.09375 L 3.269531 -3.09375 L 4.542969 -5.84375 Z M 4.652344 -3.09375 "/></g></g></g><g fill="#ffcc00" fill-opacity="1"><g transform="translate(59.183379, 28.18937)"><g><path d="M 2.066406 -7.574219 L 0.453125 0 L 3.765625 0 C 5.476562 0 6.828125 -1.363281 7.335938 -3.785156 C 7.453125 -4.316406 7.507812 -4.792969 7.507812 -5.226562 C 7.507812 -6.742188 6.796875 -7.574219 5.378906 -7.574219 Z M 3.460938 -6.210938 L 4.621094 -6.210938 C 5.398438 -6.210938 5.789062 -5.777344 5.789062 -4.859375 C 5.789062 -4.554688 5.746094 -4.199219 5.660156 -3.785156 C 5.3125 -2.132812 4.609375 -1.363281 3.59375 -1.363281 L 2.433594 -1.363281 Z M 3.460938 -6.210938 "/></g></g></g><g fill="#ffcc00" fill-opacity="1"><g transform="translate(74.69936, 28.18937)"><g><path d="M 2.078125 -7.574219 L 0.464844 0 L 5.539062 0 L 5.84375 -1.40625 L 2.445312 -1.40625 L 2.800781 -3.117188 L 5.527344 -3.117188 L 5.820312 -4.457031 L 3.09375 -4.457031 L 3.453125 -6.167969 L 6.847656 -6.167969 L 7.152344 -7.574219 Z M 2.078125 -7.574219 "/></g></g></g><g fill="#ffcc00" fill-opacity="1"><g transform="translate(89.090078, 28.18937)"><g><path d="M 2.066406 -7.574219 L 0.453125 0 L 2.140625 0 L 3.191406 -4.933594 L 3.601562 0 L 4.457031 0 L 6.980469 -4.945312 L 5.929688 0 L 7.605469 0 L 9.21875 -7.574219 L 6.902344 -7.574219 L 4.683594 -2.996094 L 4.382812 -7.574219 Z M 2.066406 -7.574219 "/></g></g></g><g fill="#ffcc00" fill-opacity="1"><g transform="translate(105.796243, 28.18937)"><g><path d="M 1.71875 -7.574219 L 2.867188 -2.164062 L 2.402344 0 L 4.066406 0 L 4.535156 -2.164062 L 7.972656 -7.574219 L 6.070312 -7.574219 L 4.089844 -4.003906 L 3.625 -7.574219 Z M 1.71875 -7.574219 "/></g></g></g></svg>