<svg xmlns="http://www.w3.org/2000/svg" xmlns:xlink="http://www.w3.org/1999/xlink" width="200" zoomAndPan="magnify" viewBox="0 0 150 112.499997" height="150" preserveAspectRatio="xMidYMid meet" version="1.0"><defs><g/><clipPath id="ef33f6810c"><path d="M 37 47.113281 L 40 47.113281 L 40 63.539062 L 37 63.539062 Z M 37 47.113281 " clip-rule="nonzero"/></clipPath><clipPath id="16efeacc77"><path d="M 30.199219 54 L 32 54 L 32 57 L 30.199219 57 Z M 30.199219 54 " clip-rule="nonzero"/></clipPath><clipPath id="a275145358"><path d="M 63 47.113281 L 66 47.113281 L 66 63.539062 L 63 63.539062 Z M 63 47.113281 " clip-rule="nonzero"/></clipPath></defs><g clip-path="url(#ef33f6810c)"><path fill="#89ff04" d="M 37.179688 47.113281 L 39.175781 47.113281 L 39.175781 63.546875 L 37.179688 63.546875 Z M 37.179688 47.113281 " fill-opacity="1" fill-rule="nonzero"/></g><path fill="#89ff04" d="M 34.617188 48.8125 L 36.613281 48.8125 L 36.613281 61.84375 L 34.617188 61.84375 Z M 34.617188 48.8125 " fill-opacity="1" fill-rule="nonzero"/><path fill="#89ff04" d="M 32.042969 50.492188 L 34.035156 50.492188 L 34.035156 60.164062 L 32.042969 60.164062 Z M 32.042969 50.492188 " fill-opacity="1" fill-rule="nonzero"/><g clip-path="url(#16efeacc77)"><path fill="#89ff04" d="M 30.21875 54.4375 L 31.519531 54.4375 L 31.519531 56.21875 L 30.21875 56.21875 Z M 30.21875 54.4375 " fill-opacity="1" fill-rule="nonzero"/></g><path fill="#89ff04" d="M 39.746094 54.4375 L 62.457031 54.4375 L 62.457031 56.21875 L 39.746094 56.21875 Z M 39.746094 54.4375 " fill-opacity="1" fill-rule="nonzero"/><g clip-path="url(#a275145358)"><path fill="#89ff04" d="M 65.035156 47.113281 L 63.039062 47.113281 L 63.039062 63.546875 L 65.035156 63.546875 Z M 65.035156 47.113281 " fill-opacity="1" fill-rule="nonzero"/></g><path fill="#89ff04" d="M 67.597656 48.8125 L 65.605469 48.8125 L 65.605469 61.84375 L 67.597656 61.84375 Z M 67.597656 48.8125 " fill-opacity="1" fill-rule="nonzero"/><path fill="#89ff04" d="M 70.164062 50.492188 L 68.167969 50.492188 L 68.167969 60.164062 L 70.164062 60.164062 Z M 70.164062 50.492188 " fill-opacity="1" fill-rule="nonzero"/><path fill="#89ff04" d="M 71.996094 54.4375 L 70.695312 54.4375 L 70.695312 56.21875 L 71.996094 56.21875 Z M 71.996094 54.4375 " fill-opacity="1" fill-rule="nonzero"/><g fill="#89ff04" fill-opacity="1"><g transform="translate(74.999997, 55.503607)"><g><path d="M 3.757812 -2.671875 L 3.757812 -3.496094 L 0.261719 -3.496094 L 0.261719 0 L 3.757812 0 L 3.757812 -0.824219 L 1.085938 -0.824219 L 1.085938 -1.335938 L 3.757812 -1.335938 L 3.757812 -2.160156 L 1.085938 -2.160156 L 1.085938 -2.671875 Z M 3.757812 -2.671875 "/></g></g></g><g fill="#89ff04" fill-opacity="1"><g transform="translate(79.017401, 55.503607)"><g><path d="M 2.933594 -3.496094 L 2.933594 -1.613281 L 1.085938 -2.921875 L 1.085938 -3.496094 L 0.261719 -3.496094 L 0.261719 0 L 1.085938 0 L 1.085938 -1.878906 L 2.933594 -0.570312 L 2.933594 0 L 3.71875 0 L 3.757812 0.0273438 L 3.757812 -3.496094 Z M 2.933594 -3.496094 "/></g></g></g><g fill="#89ff04" fill-opacity="1"><g transform="translate(83.034805, 55.503607)"><g><path d="M 3.757812 -2.671875 L 3.757812 -3.496094 L 0.261719 -3.496094 L 0.261719 0 L 3.757812 0 L 3.757812 -0.824219 L 1.085938 -0.824219 L 1.085938 -1.335938 L 3.757812 -1.335938 L 3.757812 -2.160156 L 1.085938 -2.160156 L 1.085938 -2.671875 Z M 3.757812 -2.671875 "/></g></g></g><g fill="#89ff04" fill-opacity="1"><g transform="translate(87.052209, 55.503607)"><g><path d="M 0.261719 -3.496094 L 0.261719 0 L 1.085938 0 L 1.085938 -0.667969 L 2.09375 -0.667969 L 2.746094 0 L 3.746094 0 L 3.082031 -0.667969 L 3.757812 -0.667969 L 3.757812 -3.496094 Z M 1.085938 -1.492188 L 1.085938 -2.671875 L 2.933594 -2.671875 L 2.933594 -1.492188 Z M 1.085938 -1.492188 "/></g></g></g><g fill="#89ff04" fill-opacity="1"><g transform="translate(91.069613, 55.503607)"><g><path d="M 3.757812 0 L 3.757812 -2.160156 L 2.265625 -2.160156 L 2.265625 -1.335938 L 2.933594 -1.335938 L 2.933594 -0.824219 L 1.085938 -0.824219 L 1.085938 -2.671875 L 3.757812 -2.671875 L 3.757812 -3.496094 L 0.261719 -3.496094 L 0.261719 0 Z M 3.757812 0 "/></g></g></g><g fill="#89ff04" fill-opacity="1"><g transform="translate(95.087017, 55.503607)"><g><path d="M 2.933594 -0.824219 L 0.261719 -0.824219 L 0.261719 0 L 3.757812 0 L 3.757812 -3.496094 L 2.933594 -3.496094 L 2.933594 -2.160156 L 1.085938 -2.160156 L 1.085938 -3.496094 L 0.261719 -3.496094 L 0.261719 -1.335938 L 2.933594 -1.335938 Z M 2.933594 -0.824219 "/></g></g></g><g fill="#ffcc00" fill-opacity="1"><g transform="translate(74.999997, 59.838178)"><g><path d="M 1.496094 -3 L 0.0429688 0 L 0.722656 0 L 1.03125 -0.667969 L 1.863281 -0.667969 L 1.890625 0 L 2.574219 0 L 2.398438 -3 Z M 1.84375 -1.226562 L 1.292969 -1.226562 L 1.800781 -2.316406 Z M 1.84375 -1.226562 "/></g></g></g><g fill="#ffcc00" fill-opacity="1"><g transform="translate(81.043675, 59.838178)"><g><path d="M 2.074219 -3.070312 C 1.195312 -3.070312 0.664062 -2.472656 0.453125 -1.5 C 0.410156 -1.296875 0.390625 -1.113281 0.390625 -0.949219 C 0.390625 -0.304688 0.710938 0.0703125 1.410156 0.0703125 C 2.144531 0.0703125 2.632812 -0.347656 2.894531 -1.042969 L 2.230469 -1.042969 C 2.074219 -0.6875 1.855469 -0.476562 1.535156 -0.476562 C 1.203125 -0.476562 1.066406 -0.675781 1.066406 -1.027344 C 1.066406 -1.164062 1.089844 -1.324219 1.121094 -1.5 C 1.261719 -2.140625 1.511719 -2.523438 1.96875 -2.523438 C 2.289062 -2.523438 2.421875 -2.316406 2.421875 -1.957031 L 3.085938 -1.957031 C 3.089844 -1.992188 3.089844 -2.027344 3.089844 -2.0625 C 3.089844 -2.695312 2.769531 -3.070312 2.074219 -3.070312 Z M 2.074219 -3.070312 "/></g></g></g><g fill="#ffcc00" fill-opacity="1"><g transform="translate(87.258802, 59.838178)"><g><path d="M 1.496094 -3 L 0.0429688 0 L 0.722656 0 L 1.03125 -0.667969 L 1.863281 -0.667969 L 1.890625 0 L 2.574219 0 L 2.398438 -3 Z M 1.84375 -1.226562 L 1.292969 -1.226562 L 1.800781 -2.316406 Z M 1.84375 -1.226562 "/></g></g></g><g fill="#ffcc00" fill-opacity="1"><g transform="translate(93.30248, 59.838178)"><g><path d="M 0.820312 -3 L 0.179688 0 L 1.492188 0 C 2.167969 0 2.703125 -0.539062 2.90625 -1.5 C 2.953125 -1.710938 2.976562 -1.898438 2.976562 -2.070312 C 2.976562 -2.671875 2.691406 -3 2.128906 -3 Z M 1.371094 -2.460938 L 1.832031 -2.460938 C 2.140625 -2.460938 2.292969 -2.289062 2.292969 -1.925781 C 2.292969 -1.804688 2.277344 -1.664062 2.242188 -1.5 C 2.105469 -0.84375 1.824219 -0.539062 1.421875 -0.539062 L 0.964844 -0.539062 Z M 1.371094 -2.460938 "/></g></g></g><g fill="#ffcc00" fill-opacity="1"><g transform="translate(99.449027, 59.838178)"><g><path d="M 0.824219 -3 L 0.183594 0 L 2.195312 0 L 2.316406 -0.558594 L 0.96875 -0.558594 L 1.109375 -1.234375 L 2.191406 -1.234375 L 2.304688 -1.765625 L 1.226562 -1.765625 L 1.367188 -2.441406 L 2.714844 -2.441406 L 2.832031 -3 Z M 0.824219 -3 "/></g></g></g><g fill="#ffcc00" fill-opacity="1"><g transform="translate(105.149809, 59.838178)"><g><path d="M 0.820312 -3 L 0.179688 0 L 0.847656 0 L 1.265625 -1.953125 L 1.425781 0 L 1.765625 0 L 2.765625 -1.957031 L 2.347656 0 L 3.011719 0 L 3.652344 -3 L 2.734375 -3 L 1.855469 -1.1875 L 1.734375 -3 Z M 0.820312 -3 "/></g></g></g><g fill="#ffcc00" fill-opacity="1"><g transform="translate(111.76784, 59.838178)"><g><path d="M 0.679688 -3 L 1.136719 -0.855469 L 0.953125 0 L 1.613281 0 L 1.796875 -0.855469 L 3.160156 -3 L 2.40625 -3 L 1.621094 -1.585938 L 1.4375 -3 Z M 0.679688 -3 "/></g></g></g></svg>